<?xml version="1.0" standalone="no"?>
<!DOCTYPE svg PUBLIC "-//W3C//DTD SVG 20010904//EN"
 "http://www.w3.org/TR/2001/REC-SVG-20010904/DTD/svg10.dtd">
<svg version="1.0" xmlns="http://www.w3.org/2000/svg"
 width="192.000000pt" height="192.000000pt" viewBox="0 0 192.000000 192.000000"
 preserveAspectRatio="xMidYMid meet">
<metadata>
Created by potrace 1.10, written by Peter Selinger 2001-2011
</metadata>
<g transform="translate(0.000000,192.000000) scale(0.100000,-0.100000)"
fill="#43a047" stroke="none">
<path fill="#5d8aa8" d="M148 1910 c-51 -15 -94 -49 -118 -92 l-25 -43 0 -815 0 -815 27 -45
c16 -28 43 -55 70 -70 l43 -25 815 0 815 0 43 25 c27 15 54 42 70 70 l27 45 0
815 0 815 -25 43 c-15 27 -42 54 -70 70 l-45 27 -800 2 c-440 1 -812 -2 -827
-7z m894 -378 c155 -76 366 -241 428 -335 51 -75 61 -111 67 -228 4 -78 1
-110 -17 -175 -49 -178 -169 -338 -305 -405 -53 -26 -82 -33 -146 -37 -115 -7
-143 2 -339 111 -107 59 -268 205 -305 277 -136 264 53 707 347 812 81 28 188
21 270 -20z"/>
<path fill="#5d8aa8" d="M893 1360 c-166 -84 -281 -302 -271 -515 7 -140 60 -229 170 -284
120 -61 238 -34 347 77 103 106 168 280 159 429 -10 179 -124 308 -282 320
-54 4 -68 1 -123 -27z"/>
</g>
</svg>
